<mxfile host="app.diagrams.net" modified="2023-11-30T18:19:06.980Z" agent="Mozilla/5.0 (Windows NT 10.0; Win64; x64) AppleWebKit/537.36 (KHTML, like Gecko) Chrome/119.0.0.0 Safari/537.36" version="22.1.5" etag="W-6bMIG5OLk29F9O1WSF" type="github">
  <diagram name="PÃ¡gina-1" id="sSbjtqFbs7bu3l8vtbJ5">
    <mxGraphModel>
      <root>
        <mxCell id="0" />
        <mxCell id="1" parent="0" />
      </root>
    </mxGraphModel>
  </diagram>
</mxfile>
